<svg xmlns="http://www.w3.org/2000/svg" viewBox="0 0 480 600">
  <rect width="480" height="600" fill="#1f2a4e"/>
  <!-- 仮アバター：本物のavatar.pngが来たら差し替え -->
  <circle cx="240" cy="230" r="95" fill="#f6efe3" opacity=".9"/>
  <path d="M100 600 C100 460 160 400 240 400 C320 400 380 460 380 600 Z" fill="#f6efe3" opacity=".9"/>
  <path d="M150 230 a90 90 0 0 1 180 0 c0 -70 -35 -115 -90 -115 c-55 0 -90 45 -90 115 Z" fill="#1f2a4e" stroke="#f6efe3" stroke-width="0"/>
  <path d="M148 235 a92 92 0 0 1 184 0 c5 -80 -38 -125 -92 -125 c-54 0 -97 45 -92 125 Z" fill="#141c38"/>
  <text x="240" y="560" text-anchor="middle" font-family="sans-serif" font-size="18" letter-spacing="6" fill="#f0761f" opacity=".8">AVATAR COMING</text>
</svg>
